<svg id="Layer_1" data-name="Layer 1" xmlns="http://www.w3.org/2000/svg" width="221" height="36" viewBox="0 0 221 36"><defs><style>.cls-1{fill:#f60;}</style></defs><path d="M20.8564,25.41a9.49,9.49,0,0,1-3.4687,7.746q-3.4687,2.8477-9.3984,2.8477A14.8054,14.8054,0,0,1-.3545,33.8945V27.4727a17.371,17.371,0,0,0,8.3906,2.5312,7.27,7.27,0,0,0,4.1016-.9961,3.1261,3.1261,0,0,0,1.4766-2.73,4.5879,4.5879,0,0,0-.3164-1.77,5.0106,5.0106,0,0,0-.9024-1.418,24.4541,24.4541,0,0,0-2.9062-2.3906,15.66,15.66,0,0,1-4.5469-4.5937A9.6334,9.6334,0,0,1,3.63,11.207,10.1549,10.1549,0,0,1,5.083,5.8047,9.7912,9.7912,0,0,1,9.22,2.1016,13.7827,13.7827,0,0,1,15.3955.7773,18.9862,18.9862,0,0,1,24.7,3.0977L22.1455,8.5586a15.887,15.887,0,0,0-6.75-1.7344A4.7537,4.7537,0,0,0,12.208,7.8789a3.4783,3.4783,0,0,0-1.2422,2.7891,4.1376,4.1376,0,0,0,.7735,2.4961,14.177,14.177,0,0,0,3.4687,2.8242A13.8725,13.8725,0,0,1,19.45,20.125,9.8022,9.8022,0,0,1,20.8564,25.41Z"/><path d="M52.0049,11.2539a10.8,10.8,0,0,1-3.9727,8.8711q-3.9726,3.2226-10.957,3.2227H35.06L32.5049,35.5352H25.3564L32.5986,1.27h7.9219q5.672,0,8.5781,2.4961T52.0049,11.2539ZM36.3486,17.3945h1.3125a7.8521,7.8521,0,0,0,5.2383-1.6172,5.391,5.391,0,0,0,1.91-4.3359q0-4.2187-4.57-4.2187H38.5049Z"/><path d="M85.5205,13.5508A29.0241,29.0241,0,0,1,83.2,25.4219a17.8288,17.8288,0,0,1-6.3516,7.91,16.4113,16.4113,0,0,1-9.2812,2.6719q-6,0-9.3633-3.457t-3.3633-9.5977a27.79,27.79,0,0,1,2.32-11.4258A18.5149,18.5149,0,0,1,63.56,3.52,16.2859,16.2859,0,0,1,72.9814.7305q5.9766,0,9.2579,3.375T85.5205,13.5508ZM72.3955,6.7773a7.5889,7.5889,0,0,0-5.2031,2.1446,14.2926,14.2926,0,0,0-3.7149,5.8945A23.8779,23.8779,0,0,0,62.13,22.9492a7.6262,7.6262,0,0,0,1.5586,5.2031A5.5652,5.5652,0,0,0,68.083,29.91a7.67,7.67,0,0,0,5.168-2.0391,13.3586,13.3586,0,0,0,3.6445-5.7656,25.0744,25.0744,0,0,0,1.3125-8.3672,7.7881,7.7881,0,0,0-1.5234-5.1446A5.2891,5.2891,0,0,0,72.3955,6.7773Z"/><path d="M98.1768,22.3867,95.3877,35.5352H88.2393L95.4814,1.27h8.4141q5.5547,0,8.3438,2.3907t2.789,7.0078a10.4841,10.4841,0,0,1-1.9453,6.3632,11.392,11.392,0,0,1-5.6016,3.9493l6.1172,14.5547h-7.7812l-4.8516-13.1485Zm1.2421-5.9062h1.8282a7.5985,7.5985,0,0,0,4.7812-1.336,4.8532,4.8532,0,0,0,1.711-4.0781,3.6013,3.6013,0,0,0-1.1133-2.8828,5.2891,5.2891,0,0,0-3.5039-.9609h-1.7344Z"/><path d="M129.6064,35.5352H122.458l5.9531-28.2188h-8.25L121.45,1.27h23.6719L143.833,7.3164H135.56Z"/><path class="cls-1" d="M155.083,35.5352h-7.1484l5.9531-28.2188h-8.25L146.9268,1.27h23.6718L169.31,7.3164h-8.2735Z"/><path class="cls-1" d="M187.5674,35.5352H168.4189L175.6611,1.27H194.833l-1.2656,5.9532h-12l-1.57,7.5234h11.18L189.8883,20.7h-11.18l-1.875,8.836h12Z"/><path class="cls-1" d="M213.583,35.5352H194.4346L201.6768,1.27h19.1718L219.583,7.2227h-12l-1.57,7.5234h11.18l-1.2891,5.9531h-11.18l-1.875,8.836h12Z"/></svg>